<?xml version="1.0" encoding="UTF-8"?>
<svg xmlns="http://www.w3.org/2000/svg"
     width="1038" height="1009"
     viewBox="463 203 1038 1009">
  <defs>
    <linearGradient id="logoGradient" x1="469" y1="707.50" x2="1495" y2="707.50" gradientUnits="userSpaceOnUse">
      <stop offset="0%" stop-color="#17C9E8"/>
      <stop offset="100%" stop-color="#F4EC2D"/>
    </linearGradient>
  </defs>
  <path d="M 530 261 L 517 276 L 514 278 L 498 301 L 486 323 L 474 358 L 473 369 L 471 373 L 471 380 L 470 381 L 470 400 L 469 401 L 470 423 L 471 424 L 471 432 L 473 436 L 474 447 L 477 453 L 478 460 L 481 465 L 482 471 L 485 475 L 486 480 L 493 491 L 493 493 L 502 507 L 513 521 L 705 713 L 701 719 L 641 778 L 617 804 L 530 891 L 510 917 L 505 927 L 502 930 L 502 932 L 493 949 L 493 952 L 491 954 L 482 985 L 481 1006 L 480 1007 L 481 1041 L 486 1066 L 494 1088 L 496 1090 L 497 1094 L 506 1111 L 509 1114 L 518 1129 L 550 1162 L 577 1181 L 591 1189 L 596 1190 L 598 1192 L 605 1194 L 610 1197 L 641 1205 L 648 1205 L 649 1206 L 694 1205 L 703 1202 L 712 1201 L 717 1198 L 726 1196 L 728 1194 L 742 1189 L 762 1177 L 781 1162 L 922 1021 L 946 995 L 980 961 L 1189 1169 L 1192 1170 L 1194 1173 L 1211 1184 L 1238 1197 L 1245 1198 L 1250 1201 L 1260 1202 L 1263 1204 L 1277 1205 L 1278 1206 L 1318 1206 L 1319 1205 L 1333 1204 L 1336 1202 L 1341 1202 L 1350 1198 L 1357 1197 L 1361 1194 L 1366 1193 L 1389 1181 L 1411 1165 L 1433 1144 L 1442 1132 L 1445 1130 L 1446 1127 L 1461 1106 L 1462 1102 L 1464 1100 L 1473 1081 L 1481 1057 L 1482 1047 L 1485 1035 L 1485 998 L 1480 972 L 1478 969 L 1477 962 L 1474 957 L 1473 951 L 1470 947 L 1469 942 L 1466 939 L 1466 937 L 1461 928 L 1442 902 L 1257 717 L 1357 617 L 1454 517 L 1472 491 L 1485 464 L 1486 458 L 1489 452 L 1490 443 L 1492 440 L 1493 429 L 1494 428 L 1494 416 L 1495 415 L 1494 380 L 1489 355 L 1486 349 L 1485 342 L 1482 337 L 1481 332 L 1478 328 L 1478 325 L 1465 301 L 1445 274 L 1429 258 L 1402 238 L 1378 225 L 1368 221 L 1365 221 L 1360 218 L 1353 217 L 1347 214 L 1337 213 L 1333 211 L 1316 210 L 1315 209 L 1277 210 L 1267 213 L 1257 214 L 1251 217 L 1247 217 L 1233 222 L 1210 234 L 1189 250 L 1077 362 L 1041 400 L 982 458 L 979 458 L 777 255 L 761 241 L 758 240 L 757 238 L 755 238 L 749 233 L 747 233 L 738 227 L 725 221 L 700 213 L 695 213 L 684 210 L 675 210 L 674 209 L 642 209 L 641 210 L 631 210 L 621 213 L 610 214 L 605 217 L 595 219 L 593 221 L 588 222 L 584 225 L 579 226 L 570 231 L 556 241 L 554 241 Z M 1280 930 L 1286 930 L 1287 929 L 1313 930 L 1316 932 L 1323 933 L 1330 937 L 1335 938 L 1338 941 L 1340 941 L 1347 946 L 1357 955 L 1368 969 L 1373 978 L 1375 985 L 1377 987 L 1381 1007 L 1381 1018 L 1379 1023 L 1377 1037 L 1369 1054 L 1361 1065 L 1350 1076 L 1343 1081 L 1340 1082 L 1337 1085 L 1330 1087 L 1328 1089 L 1321 1090 L 1314 1093 L 1306 1093 L 1305 1094 L 1282 1093 L 1270 1089 L 1254 1081 L 1244 1073 L 1234 1062 L 1222 1041 L 1222 1038 L 1218 1027 L 1218 1021 L 1217 1020 L 1218 995 L 1220 991 L 1222 981 L 1230 966 L 1238 956 L 1252 943 L 1268 934 L 1274 933 Z M 646 930 L 659 929 L 660 928 L 683 929 L 699 934 L 701 936 L 707 938 L 723 950 L 735 963 L 745 979 L 746 984 L 749 989 L 751 1006 L 752 1007 L 752 1019 L 751 1020 L 749 1036 L 746 1041 L 745 1046 L 734 1063 L 723 1074 L 712 1082 L 698 1089 L 682 1093 L 655 1093 L 651 1091 L 643 1090 L 635 1086 L 630 1085 L 613 1073 L 604 1064 L 595 1051 L 589 1038 L 585 1022 L 585 999 L 586 998 L 586 992 L 594 972 L 597 969 L 597 967 L 616 946 L 628 938 L 632 937 L 636 934 L 644 932 Z M 1293 326 L 1309 327 L 1324 330 L 1329 333 L 1334 334 L 1347 342 L 1349 345 L 1352 346 L 1361 355 L 1369 366 L 1377 384 L 1380 400 L 1380 414 L 1379 415 L 1379 422 L 1377 432 L 1375 434 L 1373 441 L 1368 450 L 1352 469 L 1349 470 L 1341 477 L 1323 485 L 1312 486 L 1311 487 L 1287 487 L 1286 486 L 1275 485 L 1273 483 L 1265 481 L 1247 470 L 1234 457 L 1233 454 L 1226 445 L 1221 433 L 1217 416 L 1218 390 L 1220 387 L 1222 377 L 1224 375 L 1226 369 L 1237 354 L 1251 341 L 1262 334 L 1267 333 L 1272 330 Z M 655 326 L 677 326 L 682 328 L 692 329 L 706 335 L 717 342 L 737 363 L 745 379 L 746 385 L 749 391 L 749 398 L 750 399 L 749 424 L 745 437 L 737 453 L 718 473 L 697 485 L 694 485 L 683 489 L 676 489 L 675 490 L 648 489 L 641 486 L 635 485 L 620 477 L 613 472 L 602 461 L 601 458 L 598 456 L 598 454 L 590 441 L 585 425 L 584 396 L 585 395 L 586 385 L 589 380 L 590 375 L 598 361 L 611 346 L 622 338 L 631 333 L 636 332 L 638 330 L 651 328 Z" fill="url(#logoGradient)" fill-rule="evenodd"/>
</svg>
