<?xml version="1.0" encoding="UTF-8"?>
<svg xmlns="http://www.w3.org/2000/svg"
     width="927" height="874"
     viewBox="537 246 927 874">
  <defs>
    <linearGradient id="logoGradient" x1="543" y1="683.00" x2="1458" y2="683.00" gradientUnits="userSpaceOnUse">
      <stop offset="0%" stop-color="#17C9E8"/>
      <stop offset="100%" stop-color="#F4EC2D"/>
    </linearGradient>
  </defs>
  <path d="M 1113 525 L 1093 510 L 1064 494 L 1059 493 L 1057 491 L 1049 489 L 1043 486 L 1035 485 L 1032 483 L 1024 481 L 1018 481 L 1008 478 L 971 477 L 970 478 L 961 478 L 960 479 L 953 479 L 948 481 L 942 481 L 934 483 L 931 485 L 920 487 L 918 489 L 912 490 L 893 499 L 875 510 L 852 529 L 769 615 L 754 629 L 741 644 L 714 670 L 698 688 L 594 793 L 593 796 L 590 798 L 573 822 L 573 824 L 570 827 L 562 842 L 561 847 L 559 849 L 557 856 L 554 861 L 546 890 L 545 907 L 543 915 L 543 930 L 544 931 L 547 963 L 554 987 L 557 991 L 558 997 L 560 999 L 566 1013 L 569 1016 L 569 1018 L 581 1034 L 582 1037 L 610 1066 L 630 1081 L 643 1089 L 647 1090 L 650 1093 L 664 1098 L 668 1101 L 674 1102 L 676 1104 L 686 1106 L 693 1109 L 703 1110 L 707 1112 L 721 1113 L 722 1114 L 764 1114 L 765 1113 L 781 1112 L 785 1110 L 795 1109 L 801 1106 L 812 1104 L 814 1102 L 817 1102 L 824 1098 L 829 1097 L 846 1088 L 863 1077 L 877 1066 L 897 1047 L 946 996 L 962 981 L 974 967 L 1030 911 L 1033 907 L 1033 905 L 1030 906 L 991 906 L 990 905 L 982 905 L 977 903 L 961 901 L 954 898 L 947 897 L 930 889 L 927 889 L 925 887 L 910 880 L 883 861 L 861 839 L 846 820 L 846 818 L 838 807 L 838 805 L 830 791 L 829 786 L 822 771 L 822 767 L 817 751 L 816 732 L 815 731 L 817 727 L 931 610 L 934 609 L 941 603 L 959 594 L 972 592 L 976 590 L 993 590 L 998 592 L 1012 594 L 1014 596 L 1021 598 L 1034 606 L 1050 621 L 1057 630 L 1065 644 L 1066 650 L 1069 655 L 1071 671 L 1072 672 L 1072 689 L 1071 690 L 1069 706 L 1067 709 L 1065 717 L 1055 735 L 1033 757 L 1018 765 L 1004 768 L 1004 770 L 1010 770 L 1017 772 L 1045 772 L 1049 770 L 1061 769 L 1067 766 L 1073 765 L 1077 762 L 1081 761 L 1084 758 L 1086 758 L 1097 750 L 1154 693 L 1158 687 L 1177 669 L 1178 666 L 1177 665 L 1177 650 L 1174 638 L 1173 625 L 1170 617 L 1169 609 L 1166 604 L 1166 601 L 1162 591 L 1153 573 L 1144 559 L 1134 546 Z M 717 838 L 729 837 L 730 836 L 749 836 L 750 837 L 763 838 L 765 840 L 771 841 L 777 845 L 781 846 L 796 857 L 809 871 L 817 883 L 818 888 L 821 892 L 823 903 L 825 906 L 825 912 L 826 913 L 825 938 L 823 941 L 821 952 L 819 954 L 813 968 L 805 978 L 791 991 L 771 1002 L 768 1002 L 762 1005 L 750 1006 L 749 1007 L 722 1006 L 714 1004 L 711 1002 L 708 1002 L 698 997 L 683 986 L 673 975 L 667 966 L 658 945 L 657 932 L 656 931 L 656 911 L 657 910 L 658 898 L 667 877 L 678 862 L 688 853 L 698 846 Z M 1384 295 L 1366 282 L 1362 281 L 1359 278 L 1355 277 L 1341 269 L 1329 265 L 1324 262 L 1317 261 L 1310 258 L 1300 257 L 1296 255 L 1280 254 L 1279 253 L 1256 253 L 1255 252 L 1253 253 L 1233 253 L 1232 254 L 1218 255 L 1214 257 L 1209 257 L 1199 261 L 1192 262 L 1187 265 L 1173 270 L 1158 278 L 1138 292 L 1133 297 L 1130 298 L 968 460 L 968 462 L 972 461 L 1018 462 L 1022 464 L 1037 466 L 1043 469 L 1051 470 L 1067 477 L 1072 478 L 1074 480 L 1095 490 L 1098 493 L 1100 493 L 1110 501 L 1113 502 L 1123 510 L 1126 514 L 1132 518 L 1145 532 L 1161 552 L 1166 562 L 1169 565 L 1169 567 L 1181 590 L 1183 599 L 1185 601 L 1187 613 L 1189 616 L 1190 629 L 1193 644 L 1193 670 L 1192 671 L 1192 676 L 1133 740 L 1116 757 L 1102 768 L 1089 776 L 1068 785 L 1053 787 L 1048 789 L 1023 789 L 1018 787 L 1002 785 L 990 781 L 986 778 L 981 777 L 967 769 L 950 754 L 935 734 L 926 714 L 925 706 L 922 698 L 922 689 L 921 688 L 922 663 L 924 660 L 926 648 L 928 646 L 929 641 L 931 638 L 931 636 L 930 636 L 865 703 L 854 713 L 833 736 L 833 744 L 835 754 L 837 757 L 837 761 L 841 770 L 841 773 L 845 780 L 846 785 L 849 788 L 850 793 L 853 796 L 853 798 L 857 803 L 857 805 L 870 823 L 896 849 L 914 862 L 916 862 L 919 865 L 934 873 L 939 874 L 946 878 L 961 882 L 964 884 L 979 886 L 983 888 L 990 888 L 991 889 L 1028 890 L 1029 889 L 1050 888 L 1055 886 L 1070 884 L 1072 882 L 1080 881 L 1110 868 L 1122 861 L 1131 854 L 1133 854 L 1149 841 L 1181 809 L 1198 790 L 1253 734 L 1262 723 L 1277 709 L 1294 690 L 1349 634 L 1358 623 L 1393 589 L 1421 558 L 1422 555 L 1425 553 L 1426 550 L 1433 541 L 1434 537 L 1437 534 L 1437 532 L 1445 517 L 1446 512 L 1449 507 L 1450 501 L 1452 498 L 1454 485 L 1457 476 L 1457 467 L 1458 466 L 1457 418 L 1454 409 L 1453 399 L 1448 383 L 1446 381 L 1445 375 L 1442 371 L 1441 366 L 1439 364 L 1436 356 L 1430 348 L 1429 344 L 1409 318 Z M 1238 362 L 1249 361 L 1250 360 L 1278 361 L 1283 362 L 1288 365 L 1291 365 L 1303 371 L 1319 383 L 1332 397 L 1337 405 L 1345 423 L 1345 428 L 1347 435 L 1347 456 L 1346 457 L 1345 468 L 1337 488 L 1320 509 L 1304 520 L 1295 523 L 1293 525 L 1275 529 L 1254 529 L 1249 527 L 1236 525 L 1234 523 L 1227 521 L 1217 514 L 1215 514 L 1201 501 L 1194 492 L 1188 479 L 1186 477 L 1185 471 L 1182 465 L 1181 450 L 1180 449 L 1180 437 L 1181 436 L 1182 421 L 1186 409 L 1198 389 L 1211 376 L 1219 370 Z" fill="url(#logoGradient)" fill-rule="evenodd"/>
</svg>
